<svg xmlns="http://www.w3.org/2000/svg" xmlns:xlink="http://www.w3.org/1999/xlink" fill="none" version="1.1" width="64" height="64" viewBox="0 0 64 64"><defs><clipPath id="master_svg0_129_40"><rect x="0" y="0" width="64" height="64" rx="0"/></clipPath></defs><g clip-path="url(#master_svg0_129_40)"><g><g transform="matrix(-1,0,0,1,82.02055358886719,0)"><path d="M73.0205767944336,8.82475L73.0205767944336,42.8058Q73.0205767944336,46.5931,72.2399767944336,57.0445Q70.86637679443359,59.63,68.55297679443359,61.196Q66.23967679443359,62.7619,63.23967679443359,63.3809Q60.23957679443359,64,57.058876794433594,64Q55.46847679443359,64,53.33597679443359,63.6723Q51.203376794433595,63.3446,48.926046794433596,62.6526Q46.648886794433594,61.9607,44.552566794433595,61.0867Q42.456126794433594,60.2127,41.010276794433594,59.1203Q44.148936794433595,52.5616,44.87183679443359,53.0714Q45.59474679443359,53.5813,46.757416794433595,54.2769Q48.094786794433595,54.8231,49.6852067944336,55.2965Q51.27557679443359,55.7699,53.01057679443359,56.1341C54.745576794433596,56.4983,53.5240767944336,52.0246,57.058876794433594,53.2208C60.77467679443359,54.4783,60.9119767944336,57.3616,62.37227679443359,55.0052Q63.83247679443359,52.6489,63.23967679443359,41.5398L63.23967679443359,2.9561900000000003C63.23967679443359,1.875815,64.11547679443359,1,65.19587679443359,1C69.5173767944336,1,73.0205767944336,4.50326,73.0205767944336,8.82475" fill="#3D3D3D" fill-opacity="1"/></g><g><path d="M16.553756713867188,3.5714287757873535L16.553756713867188,9.114558775787353Q18.48126671386719,9.282538775787353,20.233556713867188,10.262378775787354Q21.985836713867187,11.242228775787353,23.300056713867185,13.117928775787354Q24.61426671386719,14.993628775787354,25.373596713867187,17.821228775787354Q26.13291671386719,20.648728775787355,26.191326713867188,24.624128775787355Q26.13291671386719,28.599528775787352,25.373596713867187,31.427028775787353Q24.61426671386719,34.25462877578735,23.32925671386719,36.130328775787355Q22.04425671386719,38.00602877578736,20.291966713867186,38.98592877578735Q18.539676713867188,39.965728775787355,16.553756713867188,40.18972877578735L16.553756713867188,45.732828775787354Q20.175146713867186,45.50882877578735,23.212436713867188,44.081128775787356Q26.249736713867186,42.65332877578735,28.498456713867185,39.99372877578735Q30.747256713867188,37.334128775787356,32.032256713867184,33.47072877578735Q33.31725671386719,29.607328775787355,33.31725671386719,24.624128775787355Q33.31725671386719,19.640928775787355,32.032256713867184,15.805528775787353Q30.747256713867188,11.970108775787354,28.498456713867185,9.310528775787354Q26.249736713867186,6.650948775787354,23.18323671386719,5.195178775787354Q20.116736713867187,3.7394027757873536,16.553756713867188,3.5714287757873535Z" fill="#3D3D3D" fill-opacity="1"/></g><g><path d="M17.840944290161133,19.000001907348633L17.840944290161133,24.54313190734863Q19.768454290161134,24.71111190734863,21.520744290161133,25.690951907348634Q23.273024290161132,26.670801907348633,24.58724429016113,28.546501907348635Q25.901454290161134,30.422201907348633,26.660784290161132,33.24980190734863Q27.420104290161134,36.077301907348634,27.478514290161133,40.052701907348634Q27.420104290161134,44.02810190734863,26.660784290161132,46.85560190734863Q25.901454290161134,49.68320190734863,24.616444290161134,51.558901907348634Q23.331444290161134,53.434601907348636,21.57915429016113,54.41450190734863Q19.826864290161133,55.394301907348634,17.840944290161133,55.61830190734863L17.840944290161133,61.16140190734863Q21.46233429016113,60.93740190734863,24.499624290161133,59.509701907348635Q27.53692429016113,58.08190190734863,29.78564429016113,55.42230190734863Q32.03444429016113,52.762701907348635,33.31944429016113,48.89930190734863Q34.60444429016113,45.03590190734863,34.60444429016113,40.052701907348634Q34.60444429016113,35.06950190734864,33.31944429016113,31.23410190734863Q32.03444429016113,27.39868190734863,29.78564429016113,24.739101907348633Q27.53692429016113,22.07952190734863,24.470424290161134,20.623751907348634Q21.403924290161132,19.167975907348634,17.840944290161133,19.000001907348633Z" fill="#3D3D3D" fill-opacity="1"/></g></g><g transform="matrix(-1,0,0,-1,110,128)"><g transform="matrix(-1,0,0,1,174.0206298828125,0)"><path d="M119.02061494140625,70.52062L119.02061494140625,105.8058Q119.02061494140625,109.59309999999999,118.24001494140626,120.0445Q116.86641494140625,122.63,114.55301494140625,124.196Q112.23971494140625,125.7619,109.23971494140625,126.3809Q106.23961494140624,127,103.05891494140624,127Q101.46851494140626,127,99.33601494140625,126.6723Q97.20341494140625,126.3446,94.92608494140624,125.6526Q92.64892494140625,124.9607,90.55260494140624,124.08670000000001Q88.45616494140626,123.2127,87.01031494140625,122.1203Q90.14897494140625,115.5616,90.87187494140625,116.0714Q91.59478494140625,116.5813,92.75745494140625,117.2769Q94.09482494140624,117.8231,95.68524494140625,118.29650000000001Q97.27561494140625,118.7699,99.01061494140625,119.13409999999999C100.74561494140625,119.4983,99.52411494140625,115.02459999999999,103.05891494140624,116.2208C106.77471494140624,117.47829999999999,106.91201494140626,120.36160000000001,108.37231494140624,118.0052Q109.83251494140625,115.6489,109.23971494140625,104.5398L109.23971494140625,67.26031C109.23971494140625,65.45969,110.69941494140625,64,112.50001494140625,64C116.10121494140625,64,119.02061494140625,66.91938,119.02061494140625,70.52062" fill="#3D3D3D" fill-opacity="1"/></g><g><path d="M62.523664474487305,66.57142877578735L62.523664474487305,72.11455877578736Q64.4511744744873,72.28253877578736,66.2034644744873,73.26237877578735Q67.9557444744873,74.24222877578735,69.26996447448731,76.11792877578735Q70.5841744744873,77.99362877578736,71.3435044744873,80.82122877578735Q72.1028244744873,83.64872877578736,72.1612344744873,87.62412877578736Q72.1028244744873,91.59952877578735,71.3435044744873,94.42702877578735Q70.5841744744873,97.25462877578735,69.2991644744873,99.13032877578735Q68.0141644744873,101.00602877578736,66.2618744744873,101.98592877578736Q64.5095844744873,102.96572877578735,62.523664474487305,103.18972877578736L62.523664474487305,108.73282877578735Q66.14505447448731,108.50882877578735,69.18234447448731,107.08112877578736Q72.21964447448731,105.65332877578734,74.4683644744873,102.99372877578736Q76.7171644744873,100.33412877578735,78.0021644744873,96.47072877578735Q79.2871644744873,92.60732877578735,79.2871644744873,87.62412877578736Q79.2871644744873,82.64092877578736,78.0021644744873,78.80552877578735Q76.7171644744873,74.97010877578735,74.4683644744873,72.31052877578735Q72.21964447448731,69.65094877578736,69.1531444744873,68.19517877578735Q66.0866444744873,66.73940277578735,62.523664474487305,66.57142877578735Z" fill="#3D3D3D" fill-opacity="1"/></g><g><path d="M62.523664474487305,82.26716423034668L62.523664474487305,87.81029423034668Q64.4511744744873,87.97827423034668,66.2034644744873,88.95811423034668Q67.9557444744873,89.93796423034668,69.26996447448731,91.81366423034667Q70.5841744744873,93.68936423034668,71.3435044744873,96.51696423034667Q72.1028244744873,99.34446423034669,72.1612344744873,103.31986423034668Q72.1028244744873,107.29526423034667,71.3435044744873,110.12276423034668Q70.5841744744873,112.95036423034668,69.2991644744873,114.82606423034667Q68.0141644744873,116.70176423034668,66.2618744744873,117.68166423034668Q64.5095844744873,118.66146423034668,62.523664474487305,118.88546423034668L62.523664474487305,124.42856423034668Q66.14505447448731,124.20456423034668,69.18234447448731,122.77686423034669Q72.21964447448731,121.34906423034667,74.4683644744873,118.68946423034669Q76.7171644744873,116.02986423034667,78.0021644744873,112.16646423034668Q79.2871644744873,108.30306423034668,79.2871644744873,103.31986423034668Q79.2871644744873,98.33666423034668,78.0021644744873,94.50126423034668Q76.7171644744873,90.66584423034668,74.4683644744873,88.00626423034667Q72.21964447448731,85.34668423034668,69.1531444744873,83.89091423034668Q66.0866444744873,82.43513823034668,62.523664474487305,82.26716423034668Z" fill="#3D3D3D" fill-opacity="1"/></g></g></g></svg>